<svg width="381" height="54" viewBox="0 0 381 54" fill="none" xmlns="http://www.w3.org/2000/svg">
<rect width="381" height="54" rx="27" fill="white"/>
<path d="M111.496 21.5781H114.731C116.158 21.5781 117.231 21.7917 117.95 22.2188C118.668 22.6458 119.028 23.3724 119.028 24.3984C119.028 24.8411 118.942 25.2396 118.77 25.5938C118.603 25.9427 118.358 26.2318 118.035 26.4609C117.713 26.6901 117.314 26.849 116.84 26.9375V27.0156C117.34 27.0938 117.783 27.237 118.168 27.4453C118.554 27.6536 118.856 27.9453 119.075 28.3203C119.293 28.6953 119.403 29.1719 119.403 29.75C119.403 30.4531 119.239 31.0469 118.91 31.5312C118.588 32.0156 118.129 32.3828 117.535 32.6328C116.942 32.8776 116.239 33 115.426 33H111.496V21.5781ZM112.825 26.4766H115.012C116.007 26.4766 116.694 26.3125 117.075 25.9844C117.46 25.6562 117.653 25.1771 117.653 24.5469C117.653 23.8958 117.423 23.4271 116.965 23.1406C116.512 22.8542 115.788 22.7109 114.793 22.7109H112.825V26.4766ZM112.825 27.5938V31.8672H115.2C116.215 31.8672 116.934 31.6693 117.356 31.2734C117.778 30.8724 117.989 30.3333 117.989 29.6562C117.989 29.224 117.892 28.8542 117.7 28.5469C117.512 28.2396 117.205 28.0052 116.778 27.8438C116.356 27.6771 115.791 27.5938 115.082 27.5938H112.825ZM124.848 24.2969C125.869 24.2969 126.627 24.526 127.121 24.9844C127.616 25.4427 127.864 26.1745 127.864 27.1797V33H126.918L126.668 31.7344H126.606C126.366 32.0469 126.116 32.3099 125.856 32.5234C125.595 32.7318 125.293 32.8906 124.95 33C124.611 33.1042 124.194 33.1562 123.7 33.1562C123.179 33.1562 122.715 33.0651 122.309 32.8828C121.908 32.7005 121.59 32.4245 121.356 32.0547C121.127 31.6849 121.012 31.2161 121.012 30.6484C121.012 29.7943 121.351 29.138 122.028 28.6797C122.705 28.2214 123.736 27.9714 125.121 27.9297L126.598 27.8672V27.3438C126.598 26.6042 126.439 26.0859 126.121 25.7891C125.804 25.4922 125.356 25.3438 124.778 25.3438C124.33 25.3438 123.903 25.4089 123.496 25.5391C123.09 25.6693 122.705 25.8229 122.34 26L121.942 25.0156C122.327 24.8177 122.77 24.6484 123.27 24.5078C123.77 24.3672 124.296 24.2969 124.848 24.2969ZM126.582 28.7812L125.278 28.8359C124.21 28.8776 123.457 29.0521 123.02 29.3594C122.582 29.6667 122.364 30.1016 122.364 30.6641C122.364 31.1536 122.512 31.5156 122.809 31.75C123.106 31.9844 123.499 32.1016 123.989 32.1016C124.749 32.1016 125.371 31.8906 125.856 31.4688C126.34 31.0469 126.582 30.4141 126.582 29.5703V28.7812ZM131.832 24.4375V33H130.535V24.4375H131.832ZM131.2 21.2344C131.413 21.2344 131.595 21.3047 131.746 21.4453C131.903 21.5807 131.981 21.7943 131.981 22.0859C131.981 22.3724 131.903 22.5859 131.746 22.7266C131.595 22.8672 131.413 22.9375 131.2 22.9375C130.976 22.9375 130.788 22.8672 130.637 22.7266C130.491 22.5859 130.418 22.3724 130.418 22.0859C130.418 21.7943 130.491 21.5807 130.637 21.4453C130.788 21.3047 130.976 21.2344 131.2 21.2344ZM136.621 28.6172L133.66 24.4375H135.145L137.403 27.7344L139.653 24.4375H141.121L138.16 28.6172L141.285 33H139.801L137.403 29.5078L134.989 33H133.52L136.621 28.6172ZM146.16 24.2969C147.181 24.2969 147.939 24.526 148.434 24.9844C148.929 25.4427 149.176 26.1745 149.176 27.1797V33H148.231L147.981 31.7344H147.918C147.679 32.0469 147.429 32.3099 147.168 32.5234C146.908 32.7318 146.606 32.8906 146.262 33C145.923 33.1042 145.507 33.1562 145.012 33.1562C144.491 33.1562 144.028 33.0651 143.621 32.8828C143.22 32.7005 142.903 32.4245 142.668 32.0547C142.439 31.6849 142.325 31.2161 142.325 30.6484C142.325 29.7943 142.663 29.138 143.34 28.6797C144.017 28.2214 145.048 27.9714 146.434 27.9297L147.91 27.8672V27.3438C147.91 26.6042 147.752 26.0859 147.434 25.7891C147.116 25.4922 146.668 25.3438 146.09 25.3438C145.642 25.3438 145.215 25.4089 144.809 25.5391C144.403 25.6693 144.017 25.8229 143.653 26L143.254 25.0156C143.64 24.8177 144.082 24.6484 144.582 24.5078C145.082 24.3672 145.608 24.2969 146.16 24.2969ZM147.895 28.7812L146.59 28.8359C145.522 28.8776 144.77 29.0521 144.332 29.3594C143.895 29.6667 143.676 30.1016 143.676 30.6641C143.676 31.1536 143.825 31.5156 144.121 31.75C144.418 31.9844 144.812 32.1016 145.301 32.1016C146.062 32.1016 146.684 31.8906 147.168 31.4688C147.653 31.0469 147.895 30.4141 147.895 29.5703V28.7812ZM155.739 24.2812C155.91 24.2812 156.09 24.2917 156.278 24.3125C156.465 24.3281 156.632 24.3516 156.778 24.3828L156.614 25.5859C156.473 25.5495 156.317 25.5208 156.145 25.5C155.973 25.4792 155.812 25.4688 155.66 25.4688C155.317 25.4688 154.991 25.5391 154.684 25.6797C154.382 25.8151 154.116 26.013 153.887 26.2734C153.658 26.5286 153.478 26.8385 153.348 27.2031C153.218 27.5625 153.153 27.9635 153.153 28.4062V33H151.848V24.4375H152.926L153.067 26.0156H153.121C153.298 25.6979 153.512 25.4089 153.762 25.1484C154.012 24.8828 154.301 24.6719 154.629 24.5156C154.963 24.3594 155.332 24.2812 155.739 24.2812ZM166.575 24.2812C167.642 24.2812 168.494 24.6484 169.129 25.3828C169.765 26.1172 170.082 27.2214 170.082 28.6953C170.082 29.6693 169.937 30.487 169.645 31.1484C169.353 31.8099 168.942 32.3099 168.41 32.6484C167.884 32.987 167.262 33.1562 166.543 33.1562C166.09 33.1562 165.692 33.0964 165.348 32.9766C165.004 32.8568 164.71 32.6953 164.465 32.4922C164.22 32.2891 164.017 32.0677 163.856 31.8281H163.762C163.778 32.0312 163.796 32.276 163.817 32.5625C163.843 32.849 163.856 33.099 163.856 33.3125V36.8281H162.551V24.4375H163.621L163.793 25.7031H163.856C164.022 25.4427 164.226 25.2057 164.465 24.9922C164.705 24.7734 164.996 24.6016 165.34 24.4766C165.689 24.3464 166.101 24.2812 166.575 24.2812ZM166.348 25.375C165.754 25.375 165.275 25.4896 164.91 25.7188C164.551 25.9479 164.288 26.2917 164.121 26.75C163.955 27.2031 163.866 27.7734 163.856 28.4609V28.7109C163.856 29.4349 163.934 30.0469 164.09 30.5469C164.252 31.0469 164.515 31.4271 164.879 31.6875C165.249 31.9479 165.744 32.0781 166.364 32.0781C166.895 32.0781 167.338 31.9349 167.692 31.6484C168.046 31.362 168.309 30.9635 168.481 30.4531C168.658 29.9375 168.746 29.3464 168.746 28.6797C168.746 27.6693 168.548 26.8672 168.153 26.2734C167.762 25.6745 167.16 25.375 166.348 25.375ZM175.551 24.2969C176.572 24.2969 177.33 24.526 177.825 24.9844C178.319 25.4427 178.567 26.1745 178.567 27.1797V33H177.621L177.371 31.7344H177.309C177.069 32.0469 176.819 32.3099 176.559 32.5234C176.298 32.7318 175.996 32.8906 175.653 33C175.314 33.1042 174.897 33.1562 174.403 33.1562C173.882 33.1562 173.418 33.0651 173.012 32.8828C172.611 32.7005 172.293 32.4245 172.059 32.0547C171.83 31.6849 171.715 31.2161 171.715 30.6484C171.715 29.7943 172.054 29.138 172.731 28.6797C173.408 28.2214 174.439 27.9714 175.825 27.9297L177.301 27.8672V27.3438C177.301 26.6042 177.142 26.0859 176.825 25.7891C176.507 25.4922 176.059 25.3438 175.481 25.3438C175.033 25.3438 174.606 25.4089 174.2 25.5391C173.793 25.6693 173.408 25.8229 173.043 26L172.645 25.0156C173.03 24.8177 173.473 24.6484 173.973 24.5078C174.473 24.3672 174.999 24.2969 175.551 24.2969ZM177.285 28.7812L175.981 28.8359C174.913 28.8776 174.16 29.0521 173.723 29.3594C173.285 29.6667 173.067 30.1016 173.067 30.6641C173.067 31.1536 173.215 31.5156 173.512 31.75C173.809 31.9844 174.202 32.1016 174.692 32.1016C175.452 32.1016 176.075 31.8906 176.559 31.4688C177.043 31.0469 177.285 30.4141 177.285 29.5703V28.7812ZM185.129 24.2812C185.301 24.2812 185.481 24.2917 185.668 24.3125C185.856 24.3281 186.022 24.3516 186.168 24.3828L186.004 25.5859C185.864 25.5495 185.707 25.5208 185.535 25.5C185.364 25.4792 185.202 25.4688 185.051 25.4688C184.707 25.4688 184.382 25.5391 184.075 25.6797C183.772 25.8151 183.507 26.013 183.278 26.2734C183.048 26.5286 182.869 26.8385 182.739 27.2031C182.608 27.5625 182.543 27.9635 182.543 28.4062V33H181.239V24.4375H182.317L182.457 26.0156H182.512C182.689 25.6979 182.903 25.4089 183.153 25.1484C183.403 24.8828 183.692 24.6719 184.02 24.5156C184.353 24.3594 184.723 24.2812 185.129 24.2812ZM190.989 24.2969C192.009 24.2969 192.767 24.526 193.262 24.9844C193.757 25.4427 194.004 26.1745 194.004 27.1797V33H193.059L192.809 31.7344H192.746C192.507 32.0469 192.257 32.3099 191.996 32.5234C191.736 32.7318 191.434 32.8906 191.09 33C190.752 33.1042 190.335 33.1562 189.84 33.1562C189.319 33.1562 188.856 33.0651 188.45 32.8828C188.048 32.7005 187.731 32.4245 187.496 32.0547C187.267 31.6849 187.153 31.2161 187.153 30.6484C187.153 29.7943 187.491 29.138 188.168 28.6797C188.845 28.2214 189.877 27.9714 191.262 27.9297L192.739 27.8672V27.3438C192.739 26.6042 192.58 26.0859 192.262 25.7891C191.944 25.4922 191.496 25.3438 190.918 25.3438C190.47 25.3438 190.043 25.4089 189.637 25.5391C189.231 25.6693 188.845 25.8229 188.481 26L188.082 25.0156C188.468 24.8177 188.91 24.6484 189.41 24.5078C189.91 24.3672 190.437 24.2969 190.989 24.2969ZM192.723 28.7812L191.418 28.8359C190.351 28.8776 189.598 29.0521 189.16 29.3594C188.723 29.6667 188.504 30.1016 188.504 30.6641C188.504 31.1536 188.653 31.5156 188.95 31.75C189.246 31.9844 189.64 32.1016 190.129 32.1016C190.89 32.1016 191.512 31.8906 191.996 31.4688C192.481 31.0469 192.723 30.4141 192.723 29.5703V28.7812ZM214.004 21.5781L210.95 33H209.614L207.348 25.3125C207.28 25.0938 207.215 24.875 207.153 24.6562C207.095 24.4323 207.041 24.2214 206.989 24.0234C206.937 23.8203 206.892 23.6432 206.856 23.4922C206.825 23.3359 206.801 23.2188 206.785 23.1406C206.775 23.2188 206.754 23.3333 206.723 23.4844C206.697 23.6354 206.66 23.8099 206.614 24.0078C206.572 24.2057 206.52 24.4167 206.457 24.6406C206.4 24.8646 206.338 25.0911 206.27 25.3203L204.067 33H202.731L199.7 21.5781H201.082L202.918 28.7422C202.981 28.9818 203.038 29.2188 203.09 29.4531C203.147 29.6823 203.197 29.9062 203.239 30.125C203.285 30.3438 203.327 30.5573 203.364 30.7656C203.4 30.974 203.434 31.1771 203.465 31.375C203.491 31.1719 203.525 30.9609 203.567 30.7422C203.608 30.5182 203.653 30.2917 203.7 30.0625C203.752 29.8333 203.806 29.6016 203.864 29.3672C203.926 29.1328 203.991 28.8984 204.059 28.6641L206.114 21.5781H207.481L209.621 28.7188C209.694 28.9635 209.762 29.2057 209.825 29.4453C209.887 29.6849 209.942 29.9193 209.989 30.1484C210.041 30.3724 210.085 30.5885 210.121 30.7969C210.163 31 210.2 31.1927 210.231 31.375C210.267 31.1198 210.312 30.8516 210.364 30.5703C210.416 30.2891 210.476 29.9948 210.543 29.6875C210.616 29.3802 210.694 29.0625 210.778 28.7344L212.614 21.5781H214.004ZM216.91 24.4375V33H215.614V24.4375H216.91ZM216.278 21.2344C216.491 21.2344 216.673 21.3047 216.825 21.4453C216.981 21.5807 217.059 21.7943 217.059 22.0859C217.059 22.3724 216.981 22.5859 216.825 22.7266C216.673 22.8672 216.491 22.9375 216.278 22.9375C216.054 22.9375 215.866 22.8672 215.715 22.7266C215.569 22.5859 215.496 22.3724 215.496 22.0859C215.496 21.7943 215.569 21.5807 215.715 21.4453C215.866 21.3047 216.054 21.2344 216.278 21.2344ZM223.715 24.2812C224.731 24.2812 225.499 24.5312 226.02 25.0312C226.541 25.526 226.801 26.3229 226.801 27.4219V33H225.52V27.5078C225.52 26.7943 225.356 26.2604 225.028 25.9062C224.705 25.5521 224.207 25.375 223.535 25.375C222.588 25.375 221.921 25.6432 221.535 26.1797C221.15 26.7161 220.957 27.4948 220.957 28.5156V33H219.66V24.4375H220.707L220.903 25.6719H220.973C221.155 25.3698 221.387 25.1172 221.668 24.9141C221.95 24.7057 222.265 24.5495 222.614 24.4453C222.963 24.3359 223.33 24.2812 223.715 24.2812ZM232.52 33.1562C231.437 33.1562 230.577 32.7865 229.942 32.0469C229.312 31.3073 228.996 30.2083 228.996 28.75C228.996 27.276 229.319 26.1641 229.965 25.4141C230.611 24.6589 231.47 24.2812 232.543 24.2812C232.996 24.2812 233.392 24.3411 233.731 24.4609C234.069 24.5807 234.361 24.7422 234.606 24.9453C234.851 25.1432 235.056 25.3698 235.223 25.625H235.317C235.296 25.4635 235.275 25.2422 235.254 24.9609C235.233 24.6797 235.223 24.4505 235.223 24.2734V20.8438H236.52V33H235.473L235.278 31.7812H235.223C235.062 32.0365 234.856 32.2682 234.606 32.4766C234.361 32.6849 234.067 32.8516 233.723 32.9766C233.384 33.0964 232.983 33.1562 232.52 33.1562ZM232.723 32.0781C233.64 32.0781 234.288 31.8177 234.668 31.2969C235.048 30.776 235.239 30.0026 235.239 28.9766V28.7422C235.239 27.6536 235.056 26.8177 234.692 26.2344C234.332 25.651 233.676 25.3594 232.723 25.3594C231.926 25.3594 231.33 25.6667 230.934 26.2812C230.538 26.8906 230.34 27.724 230.34 28.7812C230.34 29.8333 230.535 30.6458 230.926 31.2188C231.322 31.7917 231.921 32.0781 232.723 32.0781ZM246.653 28.7031C246.653 29.4062 246.562 30.0339 246.379 30.5859C246.197 31.138 245.934 31.6042 245.59 31.9844C245.246 32.3646 244.83 32.6562 244.34 32.8594C243.856 33.0573 243.306 33.1562 242.692 33.1562C242.119 33.1562 241.593 33.0573 241.114 32.8594C240.64 32.6562 240.228 32.3646 239.879 31.9844C239.535 31.6042 239.267 31.138 239.075 30.5859C238.887 30.0339 238.793 29.4062 238.793 28.7031C238.793 27.7656 238.952 26.9688 239.27 26.3125C239.588 25.651 240.041 25.1484 240.629 24.8047C241.223 24.4557 241.929 24.2812 242.746 24.2812C243.528 24.2812 244.21 24.4557 244.793 24.8047C245.382 25.1536 245.838 25.6589 246.16 26.3203C246.489 26.9766 246.653 27.7708 246.653 28.7031ZM240.137 28.7031C240.137 29.3906 240.228 29.987 240.41 30.4922C240.593 30.9974 240.874 31.388 241.254 31.6641C241.634 31.9401 242.124 32.0781 242.723 32.0781C243.317 32.0781 243.804 31.9401 244.184 31.6641C244.569 31.388 244.853 30.9974 245.035 30.4922C245.218 29.987 245.309 29.3906 245.309 28.7031C245.309 28.0208 245.218 27.4323 245.035 26.9375C244.853 26.4375 244.572 26.0521 244.192 25.7812C243.812 25.5104 243.319 25.375 242.715 25.375C241.825 25.375 241.171 25.6693 240.754 26.2578C240.343 26.8464 240.137 27.6615 240.137 28.7031ZM255.864 32.9844L254.34 28C254.272 27.7865 254.207 27.5781 254.145 27.375C254.088 27.1667 254.033 26.9688 253.981 26.7812C253.934 26.5885 253.89 26.4115 253.848 26.25C253.812 26.0833 253.78 25.9401 253.754 25.8203H253.7C253.679 25.9401 253.65 26.0833 253.614 26.25C253.577 26.4115 253.533 26.5885 253.481 26.7812C253.434 26.974 253.382 27.1771 253.325 27.3906C253.267 27.599 253.202 27.8099 253.129 28.0234L251.535 32.9844H250.075L247.715 24.4219H249.059L250.293 29.1484C250.377 29.4609 250.455 29.7708 250.528 30.0781C250.606 30.3802 250.671 30.6667 250.723 30.9375C250.78 31.2031 250.822 31.4349 250.848 31.6328H250.91C250.942 31.5026 250.976 31.3464 251.012 31.1641C251.054 30.9818 251.098 30.7891 251.145 30.5859C251.197 30.3776 251.252 30.1719 251.309 29.9688C251.366 29.7604 251.423 29.5651 251.481 29.3828L253.059 24.4219H254.457L255.981 29.375C256.059 29.625 256.134 29.8854 256.207 30.1562C256.285 30.4271 256.356 30.6901 256.418 30.9453C256.481 31.1953 256.525 31.4193 256.551 31.6172H256.614C256.634 31.4401 256.673 31.2214 256.731 30.9609C256.788 30.7005 256.853 30.4141 256.926 30.1016C257.004 29.7891 257.085 29.4714 257.168 29.1484L258.418 24.4219H259.739L257.371 32.9844H255.864ZM266.84 30.6562C266.84 31.2031 266.702 31.6641 266.426 32.0391C266.155 32.4089 265.765 32.6875 265.254 32.875C264.749 33.0625 264.145 33.1562 263.442 33.1562C262.843 33.1562 262.325 33.1094 261.887 33.0156C261.45 32.9219 261.067 32.7891 260.739 32.6172V31.4219C261.088 31.5938 261.504 31.75 261.989 31.8906C262.473 32.0312 262.968 32.1016 263.473 32.1016C264.213 32.1016 264.749 31.9818 265.082 31.7422C265.416 31.5026 265.582 31.1771 265.582 30.7656C265.582 30.5312 265.515 30.3255 265.379 30.1484C265.249 29.9661 265.028 29.7917 264.715 29.625C264.403 29.4531 263.97 29.2656 263.418 29.0625C262.871 28.8542 262.397 28.6484 261.996 28.4453C261.601 28.237 261.293 27.9844 261.075 27.6875C260.861 27.3906 260.754 27.0052 260.754 26.5312C260.754 25.8073 261.046 25.2526 261.629 24.8672C262.218 24.4766 262.989 24.2812 263.942 24.2812C264.457 24.2812 264.939 24.3333 265.387 24.4375C265.84 24.5365 266.262 24.6719 266.653 24.8438L266.215 25.8828C265.861 25.7318 265.483 25.6042 265.082 25.5C264.681 25.3958 264.272 25.3438 263.856 25.3438C263.257 25.3438 262.796 25.4427 262.473 25.6406C262.155 25.8385 261.996 26.1094 261.996 26.4531C261.996 26.7188 262.069 26.9375 262.215 27.1094C262.366 27.2812 262.606 27.4427 262.934 27.5938C263.262 27.7448 263.694 27.9219 264.231 28.125C264.767 28.3229 265.231 28.5286 265.621 28.7422C266.012 28.9505 266.312 29.2057 266.52 29.5078C266.733 29.8047 266.84 30.1875 266.84 30.6562Z" fill="#23272A"/>
</svg>
