<svg width="381" height="52" viewBox="0 0 381 52" fill="none" xmlns="http://www.w3.org/2000/svg">
<rect width="381" height="52" rx="26" fill="#23272A"/>
<path d="M74.5299 32L73.1237 28.375H68.5455L67.1471 32H65.8033L70.2721 20.5312H71.4674L75.9049 32H74.5299ZM72.7252 27.1953L71.3893 23.5938C71.358 23.5 71.3059 23.3464 71.233 23.1328C71.1653 22.9193 71.095 22.6979 71.0221 22.4688C70.9492 22.2396 70.8893 22.0547 70.8424 21.9141C70.7903 22.1276 70.733 22.3411 70.6705 22.5547C70.6132 22.763 70.5559 22.9583 70.4987 23.1406C70.4414 23.3177 70.3919 23.4688 70.3502 23.5938L68.9908 27.1953H72.7252ZM78.5924 19.8438V22.8828C78.5924 23.2318 78.582 23.5703 78.5612 23.8984C78.5455 24.2266 78.5325 24.4818 78.5221 24.6641H78.5924C78.8268 24.2786 79.1653 23.9531 79.608 23.6875C80.0507 23.4219 80.6158 23.2891 81.3033 23.2891C82.3763 23.2891 83.2304 23.6615 83.8658 24.4062C84.5065 25.1458 84.8268 26.2474 84.8268 27.7109C84.8268 28.6745 84.6809 29.487 84.3893 30.1484C84.0976 30.8099 83.6862 31.3099 83.1549 31.6484C82.6237 31.987 81.9961 32.1562 81.2721 32.1562C80.595 32.1562 80.0377 32.0312 79.6002 31.7812C79.1679 31.526 78.8346 31.2161 78.6002 30.8516H78.4987L78.233 32H77.2955V19.8438H78.5924ZM81.0924 24.375C80.4726 24.375 79.9804 24.4974 79.6158 24.7422C79.2513 24.9818 78.9882 25.3464 78.8268 25.8359C78.6705 26.3203 78.5924 26.9349 78.5924 27.6797V27.75C78.5924 28.8281 78.7721 29.6536 79.1315 30.2266C79.4908 30.7943 80.1445 31.0781 81.0924 31.0781C81.8893 31.0781 82.4856 30.7865 82.8815 30.2031C83.2825 29.6198 83.483 28.7865 83.483 27.7031C83.483 26.599 83.2851 25.7682 82.8893 25.2109C82.4987 24.6536 81.8997 24.375 81.0924 24.375ZM90.983 23.2812C91.1549 23.2812 91.3346 23.2917 91.5221 23.3125C91.7096 23.3281 91.8763 23.3516 92.0221 23.3828L91.858 24.5859C91.7174 24.5495 91.5612 24.5208 91.3893 24.5C91.2174 24.4792 91.0559 24.4688 90.9049 24.4688C90.5612 24.4688 90.2356 24.5391 89.9283 24.6797C89.6263 24.8151 89.3606 25.013 89.1315 25.2734C88.9023 25.5286 88.7226 25.8385 88.5924 26.2031C88.4622 26.5625 88.3971 26.9635 88.3971 27.4062V32H87.0924V23.4375H88.1705L88.3112 25.0156H88.3658C88.5429 24.6979 88.7565 24.4089 89.0065 24.1484C89.2565 23.8828 89.5455 23.6719 89.8737 23.5156C90.207 23.3594 90.5768 23.2812 90.983 23.2812ZM96.8424 23.2969C97.8632 23.2969 98.6211 23.526 99.1158 23.9844C99.6106 24.4427 99.858 25.1745 99.858 26.1797V32H98.9127L98.6627 30.7344H98.6002C98.3606 31.0469 98.1106 31.3099 97.8502 31.5234C97.5898 31.7318 97.2877 31.8906 96.944 32C96.6054 32.1042 96.1888 32.1562 95.694 32.1562C95.1731 32.1562 94.7096 32.0651 94.3033 31.8828C93.9023 31.7005 93.5846 31.4245 93.3502 31.0547C93.1211 30.6849 93.0065 30.2161 93.0065 29.6484C93.0065 28.7943 93.345 28.138 94.0221 27.6797C94.6992 27.2214 95.7304 26.9714 97.1158 26.9297L98.5924 26.8672V26.3438C98.5924 25.6042 98.4336 25.0859 98.1158 24.7891C97.7981 24.4922 97.3502 24.3438 96.7721 24.3438C96.3242 24.3438 95.8971 24.4089 95.4908 24.5391C95.0846 24.6693 94.6992 24.8229 94.3346 25L93.9362 24.0156C94.3216 23.8177 94.7643 23.6484 95.2643 23.5078C95.7643 23.3672 96.2903 23.2969 96.8424 23.2969ZM98.5768 27.7812L97.2721 27.8359C96.2044 27.8776 95.4518 28.0521 95.0143 28.3594C94.5768 28.6667 94.358 29.1016 94.358 29.6641C94.358 30.1536 94.5065 30.5156 94.8033 30.75C95.1002 30.9844 95.4934 31.1016 95.983 31.1016C96.7434 31.1016 97.3658 30.8906 97.8502 30.4688C98.3346 30.0469 98.5768 29.4141 98.5768 28.5703V27.7812ZM114.069 27.7031C114.069 28.4062 113.978 29.0339 113.796 29.5859C113.613 30.138 113.35 30.6042 113.006 30.9844C112.663 31.3646 112.246 31.6562 111.756 31.8594C111.272 32.0573 110.723 32.1562 110.108 32.1562C109.535 32.1562 109.009 32.0573 108.53 31.8594C108.056 31.6562 107.644 31.3646 107.296 30.9844C106.952 30.6042 106.684 30.138 106.491 29.5859C106.303 29.0339 106.21 28.4062 106.21 27.7031C106.21 26.7656 106.368 25.9688 106.686 25.3125C107.004 24.651 107.457 24.1484 108.046 23.8047C108.639 23.4557 109.345 23.2812 110.163 23.2812C110.944 23.2812 111.626 23.4557 112.21 23.8047C112.798 24.1536 113.254 24.6589 113.577 25.3203C113.905 25.9766 114.069 26.7708 114.069 27.7031ZM107.553 27.7031C107.553 28.3906 107.644 28.987 107.827 29.4922C108.009 29.9974 108.29 30.388 108.671 30.6641C109.051 30.9401 109.54 31.0781 110.139 31.0781C110.733 31.0781 111.22 30.9401 111.6 30.6641C111.986 30.388 112.269 29.9974 112.452 29.4922C112.634 28.987 112.725 28.3906 112.725 27.7031C112.725 27.0208 112.634 26.4323 112.452 25.9375C112.269 25.4375 111.988 25.0521 111.608 24.7812C111.228 24.5104 110.736 24.375 110.131 24.375C109.241 24.375 108.587 24.6693 108.171 25.2578C107.759 25.8464 107.553 26.6615 107.553 27.7031ZM129.733 26.1797C129.733 27.4661 129.499 28.5417 129.03 29.4062C128.561 30.2656 127.881 30.9141 126.991 31.3516C126.105 31.7839 125.03 32 123.764 32H120.663V20.5781H124.108C125.269 20.5781 126.269 20.7917 127.108 21.2188C127.947 21.6406 128.592 22.2682 129.046 23.1016C129.504 23.9297 129.733 24.9557 129.733 26.1797ZM128.335 26.2266C128.335 25.2005 128.163 24.3542 127.819 23.6875C127.48 23.0208 126.98 22.526 126.319 22.2031C125.663 21.875 124.858 21.7109 123.905 21.7109H121.991V30.8594H123.608C125.181 30.8594 126.361 30.4714 127.147 29.6953C127.939 28.9193 128.335 27.763 128.335 26.2266ZM133.374 23.4375V32H132.077V23.4375H133.374ZM132.741 20.2344C132.954 20.2344 133.137 20.3047 133.288 20.4453C133.444 20.5807 133.522 20.7943 133.522 21.0859C133.522 21.3724 133.444 21.5859 133.288 21.7266C133.137 21.8672 132.954 21.9375 132.741 21.9375C132.517 21.9375 132.329 21.8672 132.178 21.7266C132.033 21.5859 131.96 21.3724 131.96 21.0859C131.96 20.7943 132.033 20.5807 132.178 20.4453C132.329 20.3047 132.517 20.2344 132.741 20.2344ZM141.663 29.6562C141.663 30.2031 141.525 30.6641 141.249 31.0391C140.978 31.4089 140.587 31.6875 140.077 31.875C139.572 32.0625 138.967 32.1562 138.264 32.1562C137.665 32.1562 137.147 32.1094 136.71 32.0156C136.272 31.9219 135.889 31.7891 135.561 31.6172V30.4219C135.91 30.5938 136.327 30.75 136.811 30.8906C137.296 31.0312 137.79 31.1016 138.296 31.1016C139.035 31.1016 139.572 30.9818 139.905 30.7422C140.238 30.5026 140.405 30.1771 140.405 29.7656C140.405 29.5312 140.337 29.3255 140.202 29.1484C140.072 28.9661 139.85 28.7917 139.538 28.625C139.225 28.4531 138.793 28.2656 138.241 28.0625C137.694 27.8542 137.22 27.6484 136.819 27.4453C136.423 27.237 136.116 26.9844 135.897 26.6875C135.684 26.3906 135.577 26.0052 135.577 25.5312C135.577 24.8073 135.868 24.2526 136.452 23.8672C137.04 23.4766 137.811 23.2812 138.764 23.2812C139.28 23.2812 139.762 23.3333 140.21 23.4375C140.663 23.5365 141.085 23.6719 141.475 23.8438L141.038 24.8828C140.684 24.7318 140.306 24.6042 139.905 24.5C139.504 24.3958 139.095 24.3438 138.678 24.3438C138.079 24.3438 137.618 24.4427 137.296 24.6406C136.978 24.8385 136.819 25.1094 136.819 25.4531C136.819 25.7188 136.892 25.9375 137.038 26.1094C137.189 26.2812 137.428 26.4427 137.756 26.5938C138.085 26.7448 138.517 26.9219 139.053 27.125C139.59 27.3229 140.053 27.5286 140.444 27.7422C140.835 27.9505 141.134 28.2057 141.342 28.5078C141.556 28.8047 141.663 29.1875 141.663 29.6562ZM147.178 32.1562C146.408 32.1562 145.728 31.9974 145.139 31.6797C144.551 31.362 144.092 30.8776 143.764 30.2266C143.436 29.5755 143.272 28.7552 143.272 27.7656C143.272 26.7292 143.444 25.8828 143.788 25.2266C144.137 24.5651 144.616 24.0755 145.225 23.7578C145.835 23.4401 146.527 23.2812 147.303 23.2812C147.73 23.2812 148.142 23.3255 148.538 23.4141C148.939 23.4974 149.267 23.6042 149.522 23.7344L149.131 24.8203C148.871 24.7161 148.569 24.6224 148.225 24.5391C147.887 24.4557 147.569 24.4141 147.272 24.4141C146.678 24.4141 146.184 24.5417 145.788 24.7969C145.397 25.0521 145.103 25.4271 144.905 25.9219C144.712 26.4167 144.616 27.026 144.616 27.75C144.616 28.4427 144.71 29.0339 144.897 29.5234C145.09 30.013 145.374 30.388 145.749 30.6484C146.129 30.9036 146.603 31.0312 147.171 31.0312C147.624 31.0312 148.033 30.9844 148.397 30.8906C148.762 30.7917 149.092 30.6771 149.389 30.5469V31.7031C149.103 31.849 148.783 31.9609 148.428 32.0391C148.079 32.1172 147.663 32.1562 147.178 32.1562ZM158.803 27.7031C158.803 28.4062 158.712 29.0339 158.53 29.5859C158.348 30.138 158.085 30.6042 157.741 30.9844C157.397 31.3646 156.98 31.6562 156.491 31.8594C156.006 32.0573 155.457 32.1562 154.842 32.1562C154.269 32.1562 153.743 32.0573 153.264 31.8594C152.79 31.6562 152.379 31.3646 152.03 30.9844C151.686 30.6042 151.418 30.138 151.225 29.5859C151.038 29.0339 150.944 28.4062 150.944 27.7031C150.944 26.7656 151.103 25.9688 151.421 25.3125C151.738 24.651 152.191 24.1484 152.78 23.8047C153.374 23.4557 154.079 23.2812 154.897 23.2812C155.678 23.2812 156.361 23.4557 156.944 23.8047C157.533 24.1536 157.988 24.6589 158.311 25.3203C158.639 25.9766 158.803 26.7708 158.803 27.7031ZM152.288 27.7031C152.288 28.3906 152.379 28.987 152.561 29.4922C152.743 29.9974 153.025 30.388 153.405 30.6641C153.785 30.9401 154.275 31.0781 154.874 31.0781C155.467 31.0781 155.954 30.9401 156.335 30.6641C156.72 30.388 157.004 29.9974 157.186 29.4922C157.368 28.987 157.46 28.3906 157.46 27.7031C157.46 27.0208 157.368 26.4323 157.186 25.9375C157.004 25.4375 156.723 25.0521 156.342 24.7812C155.962 24.5104 155.47 24.375 154.866 24.375C153.975 24.375 153.322 24.6693 152.905 25.2578C152.493 25.8464 152.288 26.6615 152.288 27.7031ZM164.936 23.2812C165.108 23.2812 165.288 23.2917 165.475 23.3125C165.663 23.3281 165.829 23.3516 165.975 23.3828L165.811 24.5859C165.671 24.5495 165.514 24.5208 165.342 24.5C165.171 24.4792 165.009 24.4688 164.858 24.4688C164.514 24.4688 164.189 24.5391 163.881 24.6797C163.579 24.8151 163.314 25.013 163.085 25.2734C162.855 25.5286 162.676 25.8385 162.546 26.2031C162.415 26.5625 162.35 26.9635 162.35 27.4062V32H161.046V23.4375H162.124L162.264 25.0156H162.319C162.496 24.6979 162.71 24.4089 162.96 24.1484C163.21 23.8828 163.499 23.6719 163.827 23.5156C164.16 23.3594 164.53 23.2812 164.936 23.2812ZM170.639 32.1562C169.556 32.1562 168.697 31.7865 168.061 31.0469C167.431 30.3073 167.116 29.2083 167.116 27.75C167.116 26.276 167.439 25.1641 168.085 24.4141C168.73 23.6589 169.59 23.2812 170.663 23.2812C171.116 23.2812 171.512 23.3411 171.85 23.4609C172.189 23.5807 172.48 23.7422 172.725 23.9453C172.97 24.1432 173.176 24.3698 173.342 24.625H173.436C173.415 24.4635 173.394 24.2422 173.374 23.9609C173.353 23.6797 173.342 23.4505 173.342 23.2734V19.8438H174.639V32H173.592L173.397 30.7812H173.342C173.181 31.0365 172.975 31.2682 172.725 31.4766C172.48 31.6849 172.186 31.8516 171.842 31.9766C171.504 32.0964 171.103 32.1562 170.639 32.1562ZM170.842 31.0781C171.759 31.0781 172.408 30.8177 172.788 30.2969C173.168 29.776 173.358 29.0026 173.358 27.9766V27.7422C173.358 26.6536 173.176 25.8177 172.811 25.2344C172.452 24.651 171.796 24.3594 170.842 24.3594C170.046 24.3594 169.449 24.6667 169.053 25.2812C168.658 25.8906 168.46 26.724 168.46 27.7812C168.46 28.8333 168.655 29.6458 169.046 30.2188C169.441 30.7917 170.04 31.0781 170.842 31.0781ZM185.6 23.2812C186.616 23.2812 187.384 23.5312 187.905 24.0312C188.426 24.526 188.686 25.3229 188.686 26.4219V32H187.405V26.5078C187.405 25.7943 187.241 25.2604 186.913 24.9062C186.59 24.5521 186.092 24.375 185.421 24.375C184.473 24.375 183.806 24.6432 183.421 25.1797C183.035 25.7161 182.842 26.4948 182.842 27.5156V32H181.546V23.4375H182.592L182.788 24.6719H182.858C183.04 24.3698 183.272 24.1172 183.553 23.9141C183.835 23.7057 184.15 23.5495 184.499 23.4453C184.848 23.3359 185.215 23.2812 185.6 23.2812ZM198.741 27.7031C198.741 28.4062 198.65 29.0339 198.467 29.5859C198.285 30.138 198.022 30.6042 197.678 30.9844C197.335 31.3646 196.918 31.6562 196.428 31.8594C195.944 32.0573 195.394 32.1562 194.78 32.1562C194.207 32.1562 193.681 32.0573 193.202 31.8594C192.728 31.6562 192.316 31.3646 191.967 30.9844C191.624 30.6042 191.355 30.138 191.163 29.5859C190.975 29.0339 190.881 28.4062 190.881 27.7031C190.881 26.7656 191.04 25.9688 191.358 25.3125C191.676 24.651 192.129 24.1484 192.717 23.8047C193.311 23.4557 194.017 23.2812 194.835 23.2812C195.616 23.2812 196.298 23.4557 196.881 23.8047C197.47 24.1536 197.926 24.6589 198.249 25.3203C198.577 25.9766 198.741 26.7708 198.741 27.7031ZM192.225 27.7031C192.225 28.3906 192.316 28.987 192.499 29.4922C192.681 29.9974 192.962 30.388 193.342 30.6641C193.723 30.9401 194.212 31.0781 194.811 31.0781C195.405 31.0781 195.892 30.9401 196.272 30.6641C196.658 30.388 196.941 29.9974 197.124 29.4922C197.306 28.987 197.397 28.3906 197.397 27.7031C197.397 27.0208 197.306 26.4323 197.124 25.9375C196.941 25.4375 196.66 25.0521 196.28 24.7812C195.9 24.5104 195.408 24.375 194.803 24.375C193.913 24.375 193.259 24.6693 192.842 25.2578C192.431 25.8464 192.225 26.6615 192.225 27.7031ZM210.678 29.6562C210.678 30.2031 210.54 30.6641 210.264 31.0391C209.993 31.4089 209.603 31.6875 209.092 31.875C208.587 32.0625 207.983 32.1562 207.28 32.1562C206.681 32.1562 206.163 32.1094 205.725 32.0156C205.288 31.9219 204.905 31.7891 204.577 31.6172V30.4219C204.926 30.5938 205.342 30.75 205.827 30.8906C206.311 31.0312 206.806 31.1016 207.311 31.1016C208.051 31.1016 208.587 30.9818 208.921 30.7422C209.254 30.5026 209.421 30.1771 209.421 29.7656C209.421 29.5312 209.353 29.3255 209.217 29.1484C209.087 28.9661 208.866 28.7917 208.553 28.625C208.241 28.4531 207.809 28.2656 207.256 28.0625C206.71 27.8542 206.236 27.6484 205.835 27.4453C205.439 27.237 205.131 26.9844 204.913 26.6875C204.699 26.3906 204.592 26.0052 204.592 25.5312C204.592 24.8073 204.884 24.2526 205.467 23.8672C206.056 23.4766 206.827 23.2812 207.78 23.2812C208.296 23.2812 208.777 23.3333 209.225 23.4375C209.678 23.5365 210.1 23.6719 210.491 23.8438L210.053 24.8828C209.699 24.7318 209.322 24.6042 208.921 24.5C208.519 24.3958 208.111 24.3438 207.694 24.3438C207.095 24.3438 206.634 24.4427 206.311 24.6406C205.993 24.8385 205.835 25.1094 205.835 25.4531C205.835 25.7188 205.908 25.9375 206.053 26.1094C206.204 26.2812 206.444 26.4427 206.772 26.5938C207.1 26.7448 207.533 26.9219 208.069 27.125C208.605 27.3229 209.069 27.5286 209.46 27.7422C209.85 27.9505 210.15 28.2057 210.358 28.5078C210.572 28.8047 210.678 29.1875 210.678 29.6562ZM216.061 23.2812C216.79 23.2812 217.415 23.4427 217.936 23.7656C218.457 24.0885 218.855 24.5417 219.131 25.125C219.408 25.7031 219.546 26.3802 219.546 27.1562V27.9609H213.631C213.647 28.9661 213.897 29.7318 214.381 30.2578C214.866 30.7839 215.548 31.0469 216.428 31.0469C216.97 31.0469 217.449 30.9974 217.866 30.8984C218.283 30.7995 218.715 30.6536 219.163 30.4609V31.6016C218.73 31.7943 218.301 31.9349 217.874 32.0234C217.452 32.112 216.952 32.1562 216.374 32.1562C215.551 32.1562 214.832 31.9896 214.217 31.6562C213.608 31.3177 213.134 30.8229 212.796 30.1719C212.457 29.5208 212.288 28.724 212.288 27.7812C212.288 26.8594 212.441 26.0625 212.749 25.3906C213.061 24.7135 213.499 24.1927 214.061 23.8281C214.629 23.4635 215.296 23.2812 216.061 23.2812ZM216.046 24.3438C215.353 24.3438 214.801 24.5703 214.389 25.0234C213.978 25.4766 213.733 26.1094 213.655 26.9219H218.186C218.181 26.4115 218.1 25.9635 217.944 25.5781C217.793 25.1875 217.561 24.8854 217.249 24.6719C216.936 24.4531 216.535 24.3438 216.046 24.3438ZM228.819 23.4375V32H227.756L227.569 30.7969H227.499C227.322 31.0938 227.092 31.3438 226.811 31.5469C226.53 31.75 226.212 31.901 225.858 32C225.509 32.1042 225.137 32.1562 224.741 32.1562C224.064 32.1562 223.496 32.0469 223.038 31.8281C222.579 31.6094 222.233 31.2708 221.999 30.8125C221.769 30.3542 221.655 29.7656 221.655 29.0469V23.4375H222.967V28.9531C222.967 29.6667 223.129 30.2005 223.452 30.5547C223.775 30.9036 224.267 31.0781 224.928 31.0781C225.564 31.0781 226.069 30.9583 226.444 30.7188C226.824 30.4792 227.098 30.1276 227.264 29.6641C227.431 29.1953 227.514 28.6224 227.514 27.9453V23.4375H228.819ZM239.772 23.2812C240.788 23.2812 241.556 23.5312 242.077 24.0312C242.598 24.526 242.858 25.3229 242.858 26.4219V32H241.577V26.5078C241.577 25.7943 241.413 25.2604 241.085 24.9062C240.762 24.5521 240.264 24.375 239.592 24.375C238.644 24.375 237.978 24.6432 237.592 25.1797C237.207 25.7161 237.014 26.4948 237.014 27.5156V32H235.717V23.4375H236.764L236.96 24.6719H237.03C237.212 24.3698 237.444 24.1172 237.725 23.9141C238.006 23.7057 238.322 23.5495 238.671 23.4453C239.019 23.3359 239.387 23.2812 239.772 23.2812ZM248.733 23.2969C249.754 23.2969 250.512 23.526 251.006 23.9844C251.501 24.4427 251.749 25.1745 251.749 26.1797V32H250.803L250.553 30.7344H250.491C250.251 31.0469 250.001 31.3099 249.741 31.5234C249.48 31.7318 249.178 31.8906 248.835 32C248.496 32.1042 248.079 32.1562 247.585 32.1562C247.064 32.1562 246.6 32.0651 246.194 31.8828C245.793 31.7005 245.475 31.4245 245.241 31.0547C245.012 30.6849 244.897 30.2161 244.897 29.6484C244.897 28.7943 245.236 28.138 245.913 27.6797C246.59 27.2214 247.621 26.9714 249.006 26.9297L250.483 26.8672V26.3438C250.483 25.6042 250.324 25.0859 250.006 24.7891C249.689 24.4922 249.241 24.3438 248.663 24.3438C248.215 24.3438 247.788 24.4089 247.381 24.5391C246.975 24.6693 246.59 24.8229 246.225 25L245.827 24.0156C246.212 23.8177 246.655 23.6484 247.155 23.5078C247.655 23.3672 248.181 23.2969 248.733 23.2969ZM250.467 27.7812L249.163 27.8359C248.095 27.8776 247.342 28.0521 246.905 28.3594C246.467 28.6667 246.249 29.1016 246.249 29.6641C246.249 30.1536 246.397 30.5156 246.694 30.75C246.991 30.9844 247.384 31.1016 247.874 31.1016C248.634 31.1016 249.256 30.8906 249.741 30.4688C250.225 30.0469 250.467 29.4141 250.467 28.5703V27.7812ZM256.303 32L253.053 23.4375H254.444L256.327 28.6172C256.457 28.9714 256.59 29.362 256.725 29.7891C256.861 30.2161 256.954 30.5599 257.006 30.8203H257.061C257.124 30.5599 257.228 30.2161 257.374 29.7891C257.519 29.3568 257.652 28.9661 257.772 28.6172L259.655 23.4375H261.046L257.788 32H256.303ZM265.717 23.2812C266.447 23.2812 267.072 23.4427 267.592 23.7656C268.113 24.0885 268.512 24.5417 268.788 25.125C269.064 25.7031 269.202 26.3802 269.202 27.1562V27.9609H263.288C263.303 28.9661 263.553 29.7318 264.038 30.2578C264.522 30.7839 265.204 31.0469 266.085 31.0469C266.626 31.0469 267.105 30.9974 267.522 30.8984C267.939 30.7995 268.371 30.6536 268.819 30.4609V31.6016C268.387 31.7943 267.957 31.9349 267.53 32.0234C267.108 32.112 266.608 32.1562 266.03 32.1562C265.207 32.1562 264.488 31.9896 263.874 31.6562C263.264 31.3177 262.79 30.8229 262.452 30.1719C262.113 29.5208 261.944 28.724 261.944 27.7812C261.944 26.8594 262.098 26.0625 262.405 25.3906C262.717 24.7135 263.155 24.1927 263.717 23.8281C264.285 23.4635 264.952 23.2812 265.717 23.2812ZM265.702 24.3438C265.009 24.3438 264.457 24.5703 264.046 25.0234C263.634 25.4766 263.389 26.1094 263.311 26.9219H267.842C267.837 26.4115 267.756 25.9635 267.6 25.5781C267.449 25.1875 267.217 24.8854 266.905 24.6719C266.592 24.4531 266.191 24.3438 265.702 24.3438ZM273.796 35.8438C272.671 35.8438 271.803 35.6328 271.194 35.2109C270.585 34.7943 270.28 34.2083 270.28 33.4531C270.28 32.9167 270.449 32.4583 270.788 32.0781C271.131 31.6979 271.605 31.4453 272.21 31.3203C271.986 31.2161 271.793 31.0599 271.631 30.8516C271.475 30.6432 271.397 30.4036 271.397 30.1328C271.397 29.8203 271.483 29.5469 271.655 29.3125C271.832 29.0729 272.1 28.8438 272.46 28.625C272.012 28.4427 271.647 28.1354 271.366 27.7031C271.09 27.2656 270.952 26.7578 270.952 26.1797C270.952 25.5651 271.079 25.0417 271.335 24.6094C271.59 24.1719 271.96 23.8385 272.444 23.6094C272.928 23.3802 273.514 23.2656 274.202 23.2656C274.353 23.2656 274.504 23.2734 274.655 23.2891C274.811 23.2995 274.96 23.3177 275.1 23.3438C275.241 23.3646 275.363 23.3906 275.467 23.4219H278.405V24.2578L276.827 24.4531C276.983 24.6562 277.113 24.901 277.217 25.1875C277.322 25.474 277.374 25.7917 277.374 26.1406C277.374 26.9948 277.085 27.6745 276.506 28.1797C275.928 28.6797 275.134 28.9297 274.124 28.9297C273.884 28.9297 273.639 28.9089 273.389 28.8672C273.134 29.0078 272.939 29.1641 272.803 29.3359C272.673 29.5078 272.608 29.7057 272.608 29.9297C272.608 30.0964 272.658 30.2292 272.756 30.3281C272.861 30.4271 273.009 30.5 273.202 30.5469C273.394 30.5885 273.626 30.6094 273.897 30.6094H275.405C276.337 30.6094 277.051 30.8047 277.546 31.1953C278.046 31.5859 278.296 32.1562 278.296 32.9062C278.296 33.8542 277.91 34.5807 277.139 35.0859C276.368 35.5911 275.254 35.8438 273.796 35.8438ZM273.835 34.8281C274.543 34.8281 275.129 34.7552 275.592 34.6094C276.061 34.4688 276.41 34.263 276.639 33.9922C276.874 33.7266 276.991 33.4089 276.991 33.0391C276.991 32.6953 276.913 32.4349 276.756 32.2578C276.6 32.0859 276.371 31.9714 276.069 31.9141C275.767 31.8516 275.397 31.8203 274.96 31.8203H273.475C273.09 31.8203 272.754 31.8802 272.467 32C272.181 32.1198 271.96 32.2969 271.803 32.5312C271.652 32.7656 271.577 33.0573 271.577 33.4062C271.577 33.8698 271.772 34.2214 272.163 34.4609C272.553 34.7057 273.111 34.8281 273.835 34.8281ZM274.171 27.9844C274.79 27.9844 275.256 27.8281 275.569 27.5156C275.881 27.2031 276.038 26.7474 276.038 26.1484C276.038 25.5078 275.879 25.0286 275.561 24.7109C275.243 24.388 274.775 24.2266 274.155 24.2266C273.561 24.2266 273.103 24.3932 272.78 24.7266C272.462 25.0547 272.303 25.5365 272.303 26.1719C272.303 26.7552 272.465 27.2031 272.788 27.5156C273.111 27.8281 273.572 27.9844 274.171 27.9844ZM283.296 23.2969C284.316 23.2969 285.074 23.526 285.569 23.9844C286.064 24.4427 286.311 25.1745 286.311 26.1797V32H285.366L285.116 30.7344H285.053C284.814 31.0469 284.564 31.3099 284.303 31.5234C284.043 31.7318 283.741 31.8906 283.397 32C283.059 32.1042 282.642 32.1562 282.147 32.1562C281.626 32.1562 281.163 32.0651 280.756 31.8828C280.355 31.7005 280.038 31.4245 279.803 31.0547C279.574 30.6849 279.46 30.2161 279.46 29.6484C279.46 28.7943 279.798 28.138 280.475 27.6797C281.152 27.2214 282.184 26.9714 283.569 26.9297L285.046 26.8672V26.3438C285.046 25.6042 284.887 25.0859 284.569 24.7891C284.251 24.4922 283.803 24.3438 283.225 24.3438C282.777 24.3438 282.35 24.4089 281.944 24.5391C281.538 24.6693 281.152 24.8229 280.788 25L280.389 24.0156C280.775 23.8177 281.217 23.6484 281.717 23.5078C282.217 23.3672 282.743 23.2969 283.296 23.2969ZM285.03 27.7812L283.725 27.8359C282.658 27.8776 281.905 28.0521 281.467 28.3594C281.03 28.6667 280.811 29.1016 280.811 29.6641C280.811 30.1536 280.96 30.5156 281.256 30.75C281.553 30.9844 281.947 31.1016 282.436 31.1016C283.197 31.1016 283.819 30.8906 284.303 30.4688C284.788 30.0469 285.03 29.4141 285.03 28.5703V27.7812ZM292.03 32.1562C290.947 32.1562 290.087 31.7865 289.452 31.0469C288.822 30.3073 288.506 29.2083 288.506 27.75C288.506 26.276 288.829 25.1641 289.475 24.4141C290.121 23.6589 290.98 23.2812 292.053 23.2812C292.506 23.2812 292.902 23.3411 293.241 23.4609C293.579 23.5807 293.871 23.7422 294.116 23.9453C294.361 24.1432 294.566 24.3698 294.733 24.625H294.827C294.806 24.4635 294.785 24.2422 294.764 23.9609C294.743 23.6797 294.733 23.4505 294.733 23.2734V19.8438H296.03V32H294.983L294.788 30.7812H294.733C294.572 31.0365 294.366 31.2682 294.116 31.4766C293.871 31.6849 293.577 31.8516 293.233 31.9766C292.894 32.0964 292.493 32.1562 292.03 32.1562ZM292.233 31.0781C293.15 31.0781 293.798 30.8177 294.178 30.2969C294.559 29.776 294.749 29.0026 294.749 27.9766V27.7422C294.749 26.6536 294.566 25.8177 294.202 25.2344C293.842 24.651 293.186 24.3594 292.233 24.3594C291.436 24.3594 290.84 24.6667 290.444 25.2812C290.048 25.8906 289.85 26.724 289.85 27.7812C289.85 28.8333 290.046 29.6458 290.436 30.2188C290.832 30.7917 291.431 31.0781 292.233 31.0781ZM306.163 27.7031C306.163 28.4062 306.072 29.0339 305.889 29.5859C305.707 30.138 305.444 30.6042 305.1 30.9844C304.756 31.3646 304.34 31.6562 303.85 31.8594C303.366 32.0573 302.816 32.1562 302.202 32.1562C301.629 32.1562 301.103 32.0573 300.624 31.8594C300.15 31.6562 299.738 31.3646 299.389 30.9844C299.046 30.6042 298.777 30.138 298.585 29.5859C298.397 29.0339 298.303 28.4062 298.303 27.7031C298.303 26.7656 298.462 25.9688 298.78 25.3125C299.098 24.651 299.551 24.1484 300.139 23.8047C300.733 23.4557 301.439 23.2812 302.256 23.2812C303.038 23.2812 303.72 23.4557 304.303 23.8047C304.892 24.1536 305.348 24.6589 305.671 25.3203C305.999 25.9766 306.163 26.7708 306.163 27.7031ZM299.647 27.7031C299.647 28.3906 299.738 28.987 299.921 29.4922C300.103 29.9974 300.384 30.388 300.764 30.6641C301.144 30.9401 301.634 31.0781 302.233 31.0781C302.827 31.0781 303.314 30.9401 303.694 30.6641C304.079 30.388 304.363 29.9974 304.546 29.4922C304.728 28.987 304.819 28.3906 304.819 27.7031C304.819 27.0208 304.728 26.4323 304.546 25.9375C304.363 25.4375 304.082 25.0521 303.702 24.7812C303.322 24.5104 302.829 24.375 302.225 24.375C301.335 24.375 300.681 24.6693 300.264 25.2578C299.853 25.8464 299.647 26.6615 299.647 27.7031ZM312.296 23.2812C312.467 23.2812 312.647 23.2917 312.835 23.3125C313.022 23.3281 313.189 23.3516 313.335 23.3828L313.171 24.5859C313.03 24.5495 312.874 24.5208 312.702 24.5C312.53 24.4792 312.368 24.4688 312.217 24.4688C311.874 24.4688 311.548 24.5391 311.241 24.6797C310.939 24.8151 310.673 25.013 310.444 25.2734C310.215 25.5286 310.035 25.8385 309.905 26.2031C309.775 26.5625 309.71 26.9635 309.71 27.4062V32H308.405V23.4375H309.483L309.624 25.0156H309.678C309.855 24.6979 310.069 24.4089 310.319 24.1484C310.569 23.8828 310.858 23.6719 311.186 23.5156C311.519 23.3594 311.889 23.2812 312.296 23.2812Z" fill="white"/>
</svg>
